# Blender v2.78 (sub 0) OBJ File: 'temple.blend'
# www.blender.org
mtllib center.room.mtl
o Plane.003_Plane.004
v 3.578228 4.423270 0.793977
v 3.462206 3.148281 -0.246507
v 2.826525 3.148281 -0.137751
v 2.823846 3.148281 0.571281
v 4.967916 4.423270 0.556223
v 4.732353 3.148280 -0.463809
v 4.097889 3.148281 -0.355262
v 4.332608 5.310143 1.016674
v 5.203477 3.148280 1.576255
v 4.567323 3.148280 2.388609
v 5.839631 3.148280 0.763901
v 5.603223 3.148280 0.095772
v 5.366816 3.148280 -0.572356
v 3.694246 3.148280 1.834461
v 2.821167 3.148280 1.280314
v 4.567323 3.148280 2.388609
v 4.097889 3.148281 -0.355262
v 5.249376 1.560679 1.517641
v 5.157576 1.560679 1.634869
v 4.567322 -0.050295 2.388608
v 5.839631 -0.050295 0.763900
v 5.157578 2.844546 1.634869
v 5.203476 2.844546 1.576254
v 5.249376 2.844546 1.517641
v 5.583838 1.606103 0.040987
v 5.622609 1.606103 0.150557
v 5.366815 -0.050295 -0.572357
v 5.622609 2.893833 0.150557
v 5.603223 2.893833 0.095772
v 5.583838 2.893833 0.040987
v 3.408611 1.644366 -0.237338
v 3.515803 1.644366 -0.255677
v 2.826524 -0.050294 -0.137752
v 4.679975 1.644366 -0.454849
v 4.784730 1.644366 -0.472771
v 3.515803 2.912745 -0.255676
v 3.462206 2.912745 -0.246507
v 3.408611 2.912745 -0.237337
v 4.784730 2.912745 -0.472770
v 4.732353 2.912745 -0.463809
v 4.679975 2.912745 -0.454848
v 2.823477 1.641963 0.669238
v 2.824216 1.641963 0.473324
v 2.821167 -0.050295 1.280313
v 2.824216 2.895582 0.473324
v 2.823846 2.895582 0.571281
v 2.823477 2.895582 0.669238
v 3.784782 1.525103 1.891926
v 3.603707 1.525103 1.776996
v 3.603708 2.850038 1.776996
v 3.694246 2.850038 1.834461
v 3.784783 2.850037 1.891927
v 4.097888 0.758919 -0.355263
v 3.604773 -0.050294 -0.270899
v 3.599185 -0.050294 -0.269943
v 3.821085 0.755579 -0.307906
v 4.365366 0.761907 -0.401024
v 4.536352 -0.050295 -0.430278
v 5.762780 -0.050295 0.546706
v 5.464944 -0.050295 -0.295027
v 5.515593 0.740997 -0.151885
v 5.696405 0.728062 0.359119
v 4.943151 -0.050295 1.908684
v 5.499724 -0.050295 1.197952
v 5.408450 0.742265 1.314508
v 5.069845 0.738841 1.746898
v 4.031942 -0.050295 2.048799
v 3.290283 -0.050295 1.578063
v 3.909439 0.735754 1.971046
v 3.460022 0.737784 1.685798
v 2.825717 -0.050294 0.075806
v 2.822326 -0.050295 0.973464
v 2.824970 0.746149 0.273583
v 2.822909 0.741354 0.819154
vt 0.9138 0.1560
vt 0.9049 0.4599
vt 0.8286 0.4502
vt 0.8298 0.3672
vt 0.7407 0.1731
vt 0.7239 0.4762
vt 0.6475 0.4703
vt 0.6563 0.0000
vt 0.1245 0.5885
vt 0.2057 0.8338
vt 0.1151 1.0000
vt 0.0000 0.5888
vt 0.2490 0.5883
vt 0.2962 0.5962
vt 0.8286 0.4013
vt 0.8003 0.4821
vt 0.4099 0.3987
vt 0.5354 0.1635
vt 0.5619 0.3987
vt 0.4764 0.3987
vt 0.3434 0.3987
vt 0.5089 0.0000
vt 1.0000 0.0000
vt 0.9813 0.4696
vt 0.1335 0.2965
vt 0.1155 0.2965
vt 0.0000 0.0005
vt 0.0736 0.0004
vt 0.0983 0.1454
vt 0.1646 0.1459
vt 0.1825 0.0001
vt 0.2490 0.0000
vt 0.1155 0.5327
vt 0.1245 0.5326
vt 0.1335 0.5326
vt 0.3001 0.3132
vt 0.2923 0.3119
vt 0.2643 0.0026
vt 0.2776 0.1480
vt 0.3137 0.1564
vt 0.3238 0.0126
vt 0.3434 0.0159
vt 0.2923 0.5488
vt 0.2962 0.5494
vt 0.3001 0.5501
vt 0.3434 0.6042
vt 0.9073 0.6733
vt 0.9202 0.6749
vt 0.9621 0.8061
vt 0.9401 0.9175
vt 0.8472 0.9058
vt 0.7309 0.6893
vt 0.7435 0.6903
vt 0.8286 0.9365
vt 0.7286 0.9288
vt 0.7011 0.8165
vt 0.9128 0.4943
vt 0.9063 0.4934
vt 0.9955 0.8149
vt 0.8999 0.4926
vt 0.7323 0.5101
vt 0.7260 0.5096
vt 0.7197 0.5092
vt 0.6690 0.8148
vt 0.5501 0.6764
vt 0.5738 0.6764
vt 0.6475 0.9885
vt 0.6217 0.9885
vt 0.5979 0.8416
vt 0.5320 0.8425
vt 0.5134 0.9885
vt 0.4764 0.9885
vt 0.5738 0.4453
vt 0.5619 0.4453
vt 0.6475 0.3987
vt 0.5501 0.4453
vt 0.4030 0.6980
vt 0.4168 0.6980
vt 0.4407 0.9885
vt 0.4277 0.8432
vt 0.3935 0.8436
vt 0.3842 0.9885
vt 0.3434 0.9885
vt 0.4168 0.4537
vt 0.4099 0.4537
vt 0.4030 0.4537
vt 0.9407 0.9176
vn -0.5817 0.6748 -0.4541
vn 0.0285 0.5684 -0.8223
vn 0.7705 0.4318 0.4689
vn 0.7900 0.5748 0.2133
vn 0.3991 0.6746 -0.6210
vn -0.6729 0.5764 0.4637
vn -0.5694 0.4326 0.6990
vn -0.2998 0.5684 -0.7662
vn 0.7873 -0.0000 0.6165
vn 0.9427 -0.0000 -0.3336
vn -0.1686 0.0000 -0.9857
vn -1.0000 0.0000 -0.0038
vn -0.5359 -0.0000 0.8443
usemtl None.002
s 1
f 1/1/1 2/2/1 3/3/1 4/4/1
f 5/5/2 6/6/2 7/7/2 8/8/2
f 9/9/3 5/10/3 8/11/3 10/12/3
f 11/13/4 12/14/4 5/10/4 9/9/4
f 12/15/5 13/16/5 6/6/5 5/5/5
f 14/17/6 1/18/6 4/19/6 15/20/6
f 16/21/7 8/22/7 1/18/7 14/17/7
f 8/23/8 17/24/8 2/2/8 1/1/8
f 18/25/9 19/26/9 20/27/9 63/28/9 66/29/9 65/30/9 64/31/9 21/32/9
f 22/33/9 23/34/9 9/9/9 10/12/9
f 24/35/9 18/25/9 21/32/9 11/13/9
f 19/26/9 22/33/9 10/12/9 20/27/9
f 23/34/9 24/35/9 11/13/9 9/9/9
f 25/36/10 26/37/10 21/32/10 59/38/10 62/39/10 61/40/10 60/41/10 27/42/10
f 28/43/10 29/44/10 12/14/10 11/13/10
f 30/45/10 25/36/10 27/42/10 13/46/10
f 26/37/10 28/43/10 11/13/10 21/32/10
f 29/44/10 30/45/10 13/46/10 12/14/10
f 31/47/11 32/48/11 56/49/11 55/50/11 33/51/11
f 34/52/11 35/53/11 27/54/11 58/55/11 57/56/11
f 36/57/11 37/58/11 2/2/11 17/24/11
f 32/48/11 36/57/11 17/24/11 53/59/11 56/49/11
f 38/60/11 31/47/11 33/51/11 3/3/11
f 39/61/11 40/62/11 6/6/11 13/16/11
f 35/53/11 39/61/11 13/16/11 27/54/11
f 41/63/11 34/52/11 57/56/11 53/64/11 7/7/11
f 37/58/11 38/60/11 3/3/11 2/2/11
f 40/62/11 41/63/11 7/7/11 6/6/11
f 42/65/12 43/66/12 33/67/12 71/68/12 73/69/12 74/70/12 72/71/12 44/72/12
f 45/73/12 46/74/12 4/19/12 3/75/12
f 43/66/12 45/73/12 3/75/12 33/67/12
f 47/76/12 42/65/12 44/72/12 15/20/12
f 46/74/12 47/76/12 15/20/12 4/19/12
f 48/77/13 49/78/13 44/72/13 68/79/13 70/80/13 69/81/13 67/82/13 20/83/13
f 50/84/13 51/85/13 14/17/13 15/20/13
f 52/86/13 48/77/13 20/83/13 16/21/13
f 49/78/13 50/84/13 15/20/13 44/72/13
f 51/85/13 52/86/13 16/21/13 14/17/13
f 55/50/11 56/49/11 54/87/11
