# Blender v2.78 (sub 0) OBJ File: 'temple.blend'
# www.blender.org
mtllib side.room.mtl
o Plane.002
v -0.039815 4.423271 -0.173284
v 1.005333 3.148281 -0.112183
v 1.005333 3.148281 -0.757100
v 0.306906 3.148281 -0.879308
v -0.039815 4.423271 1.236596
v 1.005333 3.148280 1.176418
v 1.005333 3.148281 0.532736
v -0.386536 5.310144 0.532738
v -1.084963 3.148280 1.296770
v -1.778405 3.148281 0.532736
v -0.391520 3.148280 2.060805
v 0.306906 3.148280 1.940452
v 1.005333 3.148280 1.820099
v -1.084963 3.148281 -0.234389
v -0.391520 3.148281 -1.001516
v -1.778405 3.148281 0.532736
v 1.005333 3.148281 0.532736
v -1.034929 1.560680 1.351896
v -1.134997 1.560680 1.241642
v -1.778405 -0.050295 0.532735
v -0.391520 -0.050295 2.060804
v -1.134997 2.844547 1.241644
v -1.084963 2.844547 1.296770
v -1.034929 2.844547 1.351896
v 0.364176 1.606103 1.930583
v 0.249637 1.606103 1.950321
v 1.005333 -0.050295 1.820099
v 0.249637 2.893833 1.950322
v 0.306906 2.893833 1.940452
v 0.364176 2.893833 1.930583
v 1.005333 1.644366 -0.166557
v 1.005333 1.644366 -0.057808
v 1.005333 -0.050294 -0.757101
v 1.005333 1.644365 1.123279
v 1.005333 1.644365 1.229557
v 1.005333 2.912745 -0.057807
v 1.005333 2.912745 -0.112183
v 1.005333 2.912745 -0.166557
v 1.005333 2.912745 1.229557
v 1.005333 2.912745 1.176418
v 1.005333 2.912745 1.123279
v 0.210414 1.641963 -0.896191
v 0.403398 1.641963 -0.862425
v -0.391520 -0.050294 -1.001516
v 0.403398 2.895582 -0.862424
v 0.306906 2.895582 -0.879308
v 0.210414 2.895582 -0.896191
v -1.156873 1.525104 -0.154840
v -1.013053 1.525104 -0.313941
v -1.013053 2.850038 -0.313940
v -1.084963 2.850038 -0.234389
v -1.156873 2.850038 -0.154840
v 1.005333 0.758919 0.532735
v 1.005333 -0.050295 0.032456
v 1.005333 -0.050295 0.026787
v 1.005333 0.755579 0.251910
v 1.005333 0.761907 0.804100
v 1.005333 -0.050295 0.977570
vt 0.9138 0.1560
vt 0.9049 0.4599
vt 0.8286 0.4502
vt 0.8298 0.3672
vt 0.7407 0.1731
vt 0.7239 0.4762
vt 0.6475 0.4703
vt 0.6563 0.0000
vt 0.1245 0.5885
vt 0.2057 0.8338
vt 0.1151 1.0000
vt 0.0000 0.5888
vt 0.2490 0.5883
vt 0.2962 0.5962
vt 0.8286 0.4013
vt 0.8003 0.4821
vt 0.4099 0.3987
vt 0.5354 0.1635
vt 0.5619 0.3987
vt 0.4764 0.3987
vt 0.3434 0.3987
vt 0.5089 0.0000
vt 1.0000 0.0000
vt 0.9813 0.4696
vt 0.1335 0.2965
vt 0.1155 0.2965
vt 0.0000 0.0005
vt 0.2490 0.0000
vt 0.1155 0.5327
vt 0.1245 0.5326
vt 0.1335 0.5326
vt 0.3001 0.3132
vt 0.2923 0.3119
vt 0.3434 0.0159
vt 0.2923 0.5488
vt 0.2962 0.5494
vt 0.3001 0.5501
vt 0.3434 0.6042
vt 0.9073 0.6733
vt 0.9202 0.6749
vt 0.9621 0.8061
vt 0.9401 0.9175
vt 0.8472 0.9058
vt 0.7309 0.6893
vt 0.7435 0.6903
vt 0.8286 0.9365
vt 0.7286 0.9288
vt 0.7011 0.8165
vt 0.9128 0.4943
vt 0.9063 0.4934
vt 0.9955 0.8149
vt 0.8999 0.4926
vt 0.7323 0.5101
vt 0.7260 0.5096
vt 0.7197 0.5092
vt 0.6690 0.8148
vt 0.5501 0.6764
vt 0.5738 0.6764
vt 0.6475 0.9885
vt 0.4764 0.9885
vt 0.5738 0.4453
vt 0.5619 0.4453
vt 0.6475 0.3987
vt 0.5501 0.4453
vt 0.4030 0.6980
vt 0.4168 0.6980
vt 0.3434 0.9885
vt 0.4168 0.4537
vt 0.4099 0.4537
vt 0.4030 0.4537
vt 0.9407 0.9176
vn 0.5457 0.6748 -0.4968
vn 0.8057 0.5684 0.1668
vn -0.5921 0.4318 0.6804
vn -0.3435 0.5748 0.7427
vn 0.5449 0.6746 0.4981
vn -0.3435 0.5764 -0.7414
vn -0.5930 0.4326 -0.6791
vn 0.8058 0.5684 -0.1663
vn -0.7405 0.0000 0.6721
vn 0.1698 -0.0000 0.9855
vn 1.0000 0.0000 0.0000
vn 0.1724 0.0000 -0.9850
vn -0.7418 0.0000 -0.6706
usemtl None.002
s 1
f 1/1/1 2/2/1 3/3/1 4/4/1
f 5/5/2 6/6/2 7/7/2 8/8/2
f 9/9/3 5/10/3 8/11/3 10/12/3
f 11/13/4 12/14/4 5/10/4 9/9/4
f 12/15/5 13/16/5 6/6/5 5/5/5
f 14/17/6 1/18/6 4/19/6 15/20/6
f 16/21/7 8/22/7 1/18/7 14/17/7
f 8/23/8 17/24/8 2/2/8 1/1/8
f 18/25/9 19/26/9 20/27/9 21/28/9
f 22/29/9 23/30/9 9/9/9 10/12/9
f 24/31/9 18/25/9 21/28/9 11/13/9
f 19/26/9 22/29/9 10/12/9 20/27/9
f 23/30/9 24/31/9 11/13/9 9/9/9
f 25/32/10 26/33/10 21/28/10 27/34/10
f 28/35/10 29/36/10 12/14/10 11/13/10
f 30/37/10 25/32/10 27/34/10 13/38/10
f 26/33/10 28/35/10 11/13/10 21/28/10
f 29/36/10 30/37/10 13/38/10 12/14/10
f 31/39/11 32/40/11 56/41/11 55/42/11 33/43/11
f 34/44/11 35/45/11 27/46/11 58/47/11 57/48/11
f 36/49/11 37/50/11 2/2/11 17/24/11
f 32/40/11 36/49/11 17/24/11 53/51/11 56/41/11
f 38/52/11 31/39/11 33/43/11 3/3/11
f 39/53/11 40/54/11 6/6/11 13/16/11
f 35/45/11 39/53/11 13/16/11 27/46/11
f 41/55/11 34/44/11 57/48/11 53/56/11 7/7/11
f 37/50/11 38/52/11 3/3/11 2/2/11
f 40/54/11 41/55/11 7/7/11 6/6/11
f 42/57/12 43/58/12 33/59/12 44/60/12
f 45/61/12 46/62/12 4/19/12 3/63/12
f 43/58/12 45/61/12 3/63/12 33/59/12
f 47/64/12 42/57/12 44/60/12 15/20/12
f 46/62/12 47/64/12 15/20/12 4/19/12
f 48/65/13 49/66/13 44/60/13 20/67/13
f 50/68/13 51/69/13 14/17/13 15/20/13
f 52/70/13 48/65/13 20/67/13 16/21/13
f 49/66/13 50/68/13 15/20/13 44/60/13
f 51/69/13 52/70/13 16/21/13 14/17/13
f 55/42/11 56/41/11 54/71/11
